<svg width="20" height="20" viewBox="0 0 20 20" fill="none" xmlns="http://www.w3.org/2000/svg">
<path d="M14.1666 15.3583H10.8333L7.12495 17.8249C6.57495 18.1916 5.83329 17.8 5.83329 17.1333V15.3583C3.33329 15.3583 1.66663 13.6916 1.66663 11.1916V6.19157C1.66663 3.69157 3.33329 2.0249 5.83329 2.0249H14.1666C16.6666 2.0249 18.3333 3.69157 18.3333 6.19157V11.1916C18.3333 13.6916 16.6666 15.3583 14.1666 15.3583Z" stroke="#202224" stroke-width="1.25" stroke-miterlimit="10" stroke-linecap="round" stroke-linejoin="round"/>
<path d="M9.99989 9.46655V9.29159C9.99989 8.72492 10.3499 8.4249 10.6999 8.18324C11.0416 7.9499 11.3832 7.64991 11.3832 7.09991C11.3832 6.33325 10.7666 5.71655 9.99989 5.71655C9.23322 5.71655 8.61658 6.33325 8.61658 7.09991" stroke="#202224" stroke-width="1.25" stroke-linecap="round" stroke-linejoin="round"/>
<path d="M9.99629 11.4584H10.0038" stroke="#202224" stroke-width="1.25" stroke-linecap="round" stroke-linejoin="round"/>
</svg>
